<svg width="78" height="79" viewBox="0 0 78 79" fill="none" xmlns="http://www.w3.org/2000/svg">
<path d="M61.7354 12.3767C58.3925 8.95168 56.5503 4.55318 56.5517 0H41.4406V54.4222C41.3241 57.3673 39.9387 60.1568 37.5761 62.2034C35.2136 64.2501 32.0583 65.394 28.7747 65.3944C21.8305 65.3944 16.0599 60.3033 16.0599 53.9833C16.0599 46.4344 24.1779 40.7728 32.5403 43.0989V29.23C15.6687 27.2111 0.899994 38.9733 0.899994 53.9833C0.899994 68.5983 14.3972 79 28.7258 79C44.0814 79 56.5517 67.8083 56.5517 53.9833V26.3772C62.6792 30.3266 70.036 32.4455 77.58 32.4339V18.8722C77.58 18.8722 68.3862 19.2672 61.7354 12.3767Z" fill="white"/>
</svg>
