<svg width="20" height="18" viewBox="0 0 20 18" fill="none" xmlns="http://www.w3.org/2000/svg">
<path d="M15.25 9.89934C15.25 10.1806 15.1183 10.4503 14.8839 10.6492C14.6495 10.848 14.3315 10.9597 14 10.9597C13.6685 10.9597 13.3505 10.848 13.1161 10.6492C12.8817 10.4503 12.75 10.1806 12.75 9.89934C12.75 9.6181 12.8817 9.34839 13.1161 9.14952C13.3505 8.95066 13.6685 8.83894 14 8.83894C14.3315 8.83894 14.6495 8.95066 14.8839 9.14952C15.1183 9.34839 15.25 9.6181 15.25 9.89934ZM20 9.05102C20 13.7168 15.5 17.5342 10 17.5342H0V9.05102C0 4.38525 4.5 0.567795 10 0.567795C15.5 0.567795 20 4.38525 20 9.05102ZM5 14.141C6.41 15.1844 8 15.8376 10 15.8376C14.41 15.8376 18 12.7921 18 9.05102C18 8.38084 17.88 7.73612 17.67 7.13381C16.95 7.27802 16.2 7.35437 15.42 7.35437C13.42 7.35437 11.57 6.84538 10 5.98858C10 5.98858 8.54 10.5441 6.03 9.89934C5.37 9.72968 5 10.1623 5 10.7477" fill="white"/>
</svg>
