<svg width="16" height="14" viewBox="0 0 16 14" fill="none" xmlns="http://www.w3.org/2000/svg">
<path d="M1.5 13.5121C1.12727 13.5121 0.767896 13.3944 0.491892 13.1819C0.215888 12.9694 0.0430302 12.6773 0.00699997 12.3626L0 12.2404V2.90889C1.78986e-05 2.59256 0.13892 2.28758 0.389619 2.05342C0.640318 1.81926 0.98484 1.67271 1.356 1.64234L1.5 1.63556H6C6.37273 1.63555 6.7321 1.75327 7.00811 1.96576C7.28411 2.17826 7.45697 2.47032 7.493 2.78503L7.5 2.90804V3.12351L9.689 1.19867C9.94698 0.971681 10.2951 0.834031 10.6659 0.812402C11.0367 0.790772 11.4038 0.886704 11.696 1.0816L11.812 1.16728L14.569 3.47896C14.8337 3.70095 14.9917 3.99851 15.0122 4.31379C15.0327 4.62908 14.9143 4.93958 14.68 5.18494L14.577 5.28334L12.266 7.14965H12.5C12.8729 7.14967 13.2324 7.2675 13.5084 7.48017C13.7844 7.69285 13.9572 7.98511 13.993 8.29998L14 8.42214V12.2396C14 12.5558 13.8612 12.8606 13.6108 13.0948C13.3603 13.3289 13.016 13.4756 12.645 13.5061L12.5 13.5121H1.5ZM6.5 7.99797H1V12.2396C0.999744 12.3264 1.03086 12.4111 1.08915 12.4824C1.14745 12.5537 1.23011 12.6081 1.326 12.6383L1.41 12.6578L1.5 12.6646H6.5V7.99882V7.99797ZM12.5 7.99797H7.5V12.6637H12.5C12.617 12.6638 12.7304 12.629 12.8203 12.5654C12.9102 12.5019 12.9709 12.4136 12.992 12.3159L13 12.2396V8.42214C12.9998 8.32301 12.9587 8.22707 12.8838 8.15098C12.8089 8.07489 12.7049 8.02345 12.59 8.00561L12.5 7.99882V7.99797ZM7.5 5.63115V7.14965H9.29L7.5 5.63115ZM6 2.48388H1.5C1.38283 2.48388 1.26938 2.51879 1.17946 2.58252C1.08954 2.64624 1.02886 2.73473 1.008 2.83254L1 2.90889V7.1505H6.5V2.90889C6.50005 2.82227 6.46884 2.73771 6.41056 2.66658C6.35228 2.59545 6.26973 2.54117 6.174 2.51102L6.09 2.49236L6 2.48388Z" fill="white"/>
</svg>
