<svg width="24" height="16" viewBox="0 0 24 16" fill="none" xmlns="http://www.w3.org/2000/svg">
<path d="M21 4.35437V3.50605L18 5.2027L15 3.50605V4.35437L18 6.05102M22 0.112762H2C1.46957 0.112762 0.960859 0.291516 0.585786 0.609698C0.210714 0.927881 0 1.35943 0 1.80941L0 13.6859C0 14.1359 0.210714 14.5674 0.585786 14.8856C0.960859 15.2038 1.46957 15.3826 2 15.3826H22C22.5304 15.3826 23.0391 15.2038 23.4142 14.8856C23.7893 14.5674 24 14.1359 24 13.6859V1.80941C24 1.35943 23.7893 0.927881 23.4142 0.609698C23.0391 0.291516 22.5304 0.112762 22 0.112762ZM8 2.65773C8.79565 2.65773 9.55871 2.92586 10.1213 3.40313C10.6839 3.88041 11 4.52773 11 5.2027C11 5.87766 10.6839 6.52499 10.1213 7.00226C9.55871 7.47954 8.79565 7.74766 8 7.74766C7.20435 7.74766 6.44129 7.47954 5.87868 7.00226C5.31607 6.52499 5 5.87766 5 5.2027C5 4.52773 5.31607 3.88041 5.87868 3.40313C6.44129 2.92586 7.20435 2.65773 8 2.65773ZM14 12.8376H2V11.9893C2 10.2926 6 9.35948 8 9.35948C10 9.35948 14 10.2926 14 11.9893M22 7.74766H14V2.65773H22" fill="#A97EEE"/>
</svg>
