<svg width="20" height="15" viewBox="0 0 20 15" fill="none" xmlns="http://www.w3.org/2000/svg">
<path d="M10.2 9.29263L9.275 10.0773C9.09167 10.2329 9 10.4308 9 10.6712C9 10.9115 9.09167 11.1095 9.275 11.265C9.45833 11.4205 9.69167 11.4983 9.975 11.4983C10.2583 11.4983 10.4917 11.4205 10.675 11.265L13.3 9.03813C13.4833 8.8826 13.575 8.68466 13.575 8.44431C13.575 8.20395 13.4833 8.00601 13.3 7.85048L10.675 5.62363C10.4917 5.46811 10.2583 5.39034 9.975 5.39034C9.69167 5.39034 9.45833 5.46811 9.275 5.62363C9.09167 5.77916 9 5.9771 9 6.21746C9 6.45782 9.09167 6.65576 9.275 6.81128L10.2 7.59598H7C6.71667 7.59598 6.47933 7.67714 6.288 7.83945C6.096 8.00233 6 8.20395 6 8.44431C6 8.68466 6.096 8.886 6.288 9.04831C6.47933 9.21119 6.71667 9.29263 7 9.29263H10.2ZM2 14.3826C1.45 14.3826 0.979333 14.2166 0.588 13.8846C0.196 13.5521 0 13.1525 0 12.6859V2.50605C0 2.03947 0.196 1.64019 0.588 1.30822C0.979333 0.975674 1.45 0.809402 2 0.809402H7.175C7.44167 0.809402 7.696 0.851819 7.938 0.936651C8.17933 1.02148 8.39167 1.14166 8.575 1.29719L10 2.50605H18C18.55 2.50605 19.021 2.67232 19.413 3.00486C19.8043 3.33684 20 3.73612 20 4.20269V12.6859C20 13.1525 19.8043 13.5521 19.413 13.8846C19.021 14.2166 18.55 14.3826 18 14.3826H2Z" fill="white"/>
</svg>
