<svg width="79" height="79" viewBox="0 0 79 79" fill="none" xmlns="http://www.w3.org/2000/svg">
<path d="M67.402 11.4947C63.7671 7.83672 59.4374 4.93641 54.6656 2.96293C49.8937 0.989448 44.7752 -0.0176964 39.6086 0.000235299C17.9607 0.000235299 0.317187 17.5777 0.317187 39.1446C0.317187 46.0571 2.14101 52.7721 5.55075 58.6971L0 79L20.8153 73.549C26.5643 76.6695 33.027 78.3285 39.6086 78.3285C61.2565 78.3285 78.9 60.7511 78.9 39.1841C78.9 28.7166 74.8162 18.8812 67.402 11.4947ZM39.6086 71.6925C33.7407 71.6925 27.9917 70.1125 22.9563 67.15L21.7669 66.439L9.39663 69.678L12.6874 57.6701L11.8945 56.4456C8.63438 51.2591 6.90331 45.2641 6.89879 39.1446C6.89879 21.2117 21.5686 6.59672 39.5689 6.59672C48.2916 6.59672 56.4987 9.99371 62.6442 16.1557C65.6872 19.1733 68.0986 22.7627 69.7388 26.7157C71.3791 30.6687 72.2154 34.9067 72.1994 39.1841C72.2787 57.1171 57.6089 71.6925 39.6086 71.6925ZM57.5296 47.3606C56.5384 46.8866 51.7013 44.5166 50.829 44.1611C49.9171 43.8451 49.2828 43.6871 48.6087 44.6351C47.9347 45.6226 46.0713 47.8346 45.5162 48.4666C44.9611 49.1381 44.3664 49.2171 43.3752 48.7036C42.384 48.2296 39.2121 47.1631 35.4852 43.8451C32.5512 41.2381 30.6084 38.0386 30.0137 37.0511C29.4586 36.0636 29.9344 35.5501 30.4498 35.0366C30.886 34.6021 31.4411 33.8911 31.9168 33.3381C32.3926 32.7851 32.5909 32.3506 32.908 31.7186C33.2252 31.0471 33.0666 30.4941 32.8287 30.0201C32.5909 29.5461 30.6084 24.7272 29.8155 22.7522C29.0225 20.8562 28.1899 21.0932 27.5952 21.0537H25.6921C25.018 21.0537 23.9872 21.2907 23.0753 22.2782C22.203 23.2657 19.6655 25.6357 19.6655 30.4546C19.6655 35.2736 23.1942 39.9346 23.67 40.5666C24.1458 41.2381 30.6084 51.1131 40.4412 55.3396C42.7804 56.3666 44.6043 56.9591 46.0316 57.3936C48.3709 58.1441 50.5119 58.0256 52.2167 57.7886C54.1198 57.5121 58.045 55.4186 58.838 53.1276C59.6706 50.8366 59.6706 48.9011 59.3931 48.4666C59.1155 48.0321 58.5208 47.8346 57.5296 47.3606Z" fill="white"/>
</svg>
