<svg width="101" height="74" viewBox="0 0 101 74" fill="none" xmlns="http://www.w3.org/2000/svg">
<path d="M50.9019 0H51.4582C56.596 0.0195498 82.6289 0.215049 89.6481 2.18306C91.7701 2.78368 93.7037 3.95442 95.2557 5.57826C96.8077 7.2021 97.9238 9.22218 98.4924 11.4366C99.1237 13.9129 99.5675 17.1908 99.8675 20.5729L99.93 21.2506L100.067 22.9449L100.117 23.6227C100.524 29.5788 100.574 35.157 100.58 36.3756V36.8644C100.574 38.1286 100.518 44.0848 100.067 50.2885L100.017 50.9728L99.9612 51.6505C99.6487 55.378 99.1862 59.0794 98.4924 61.8034C97.9255 64.0187 96.81 66.0397 95.2577 67.6639C93.7054 69.288 91.7709 70.4581 89.6481 71.0569C82.3976 73.0901 54.8397 73.2335 51.0207 73.24H50.1331C48.2017 73.24 40.2137 73.2009 31.8382 72.9011L30.7757 72.862L30.2319 72.836L29.1631 72.7903L28.0942 72.7447C21.1563 72.4254 14.5496 71.9106 11.5057 71.0504C9.38363 70.4522 7.4496 69.283 5.89738 67.6601C4.34515 66.0372 3.22923 64.0175 2.6614 61.8034C1.9676 59.086 1.50507 55.378 1.19256 51.6505L1.14255 50.9663L1.09255 50.2885C0.784077 45.8729 0.613143 41.448 0.580017 37.0208L0.580017 36.2192C0.592518 34.8182 0.642521 29.9763 0.980042 24.6327L1.02379 23.9615L1.04255 23.6227L1.09255 22.9449L1.23006 21.2506L1.29256 20.5729C1.59258 17.1908 2.03636 13.9064 2.66765 11.4366C3.23452 9.22129 4.35002 7.20025 5.90231 5.57613C7.4546 3.95201 9.38913 2.78188 11.512 2.18306C14.5559 1.3359 21.1626 0.814574 28.1005 0.488744L29.1631 0.443128L30.2381 0.40403L30.7757 0.38448L31.8445 0.338864C37.793 0.13929 43.744 0.0284962 49.6956 0.0065169H50.9019V0ZM40.5825 20.9183V52.3152L66.5654 36.6233L40.5825 20.9183Z" fill="white"/>
</svg>
